<mxfile host="65bd71144e">
    <diagram id="i4oJ7EUeD3pbaW3Tq1e5" name="Page-1">
        <mxGraphModel dx="2182" dy="792" grid="1" gridSize="10" guides="1" tooltips="1" connect="1" arrows="1" fold="1" page="1" pageScale="1" pageWidth="850" pageHeight="1100" background="none" math="0" shadow="0">
            <root>
                <mxCell id="0"/>
                <mxCell id="1" parent="0"/>
                <mxCell id="11" value="" style="edgeStyle=none;html=1;" edge="1" parent="1" source="4" target="8">
                    <mxGeometry relative="1" as="geometry"/>
                </mxCell>
                <mxCell id="4" value="&lt;div style=&quot;text-align: center;&quot;&gt;&lt;span style=&quot;font-weight: 400; background-color: transparent;&quot;&gt;Aim:&lt;/span&gt;&lt;/div&gt;&lt;div style=&quot;text-align: center;&quot;&gt;&lt;span style=&quot;font-weight: 400;&quot;&gt;1. A machine learning App&lt;/span&gt;&lt;/div&gt;&lt;div style=&quot;text-align: center;&quot;&gt;&lt;span style=&quot;font-weight: 400;&quot;&gt;2. Helping to select the best model based on regression or classification.&lt;/span&gt;&lt;/div&gt;&lt;div style=&quot;text-align: center;&quot;&gt;&lt;span style=&quot;font-weight: 400;&quot;&gt;3.Fine tuning the model&lt;/span&gt;&lt;/div&gt;" style="rounded=1;whiteSpace=wrap;html=1;fillColor=#d5e8d4;strokeColor=#82b366;fontStyle=1;fontSize=20;fontColor=#000000;align=left;verticalAlign=top;" vertex="1" parent="1">
                    <mxGeometry x="200" y="50" width="360" height="130" as="geometry"/>
                </mxCell>
                <mxCell id="14" value="" style="edgeStyle=none;html=1;" edge="1" parent="1" source="8" target="13">
                    <mxGeometry relative="1" as="geometry"/>
                </mxCell>
                <mxCell id="8" value="Load the data or Upload." style="rhombus;fontSize=20;align=center;verticalAlign=middle;fillColor=#d5e8d4;strokeColor=#82b366;fontColor=#000000;rounded=1;fontStyle=0;whiteSpace=wrap;html=1;labelBorderColor=default;textShadow=0;" vertex="1" parent="1">
                    <mxGeometry x="313.75" y="230" width="132.5" height="130" as="geometry"/>
                </mxCell>
                <mxCell id="16" value="" style="edgeStyle=none;html=1;" edge="1" parent="1" source="13" target="15">
                    <mxGeometry relative="1" as="geometry"/>
                </mxCell>
                <mxCell id="13" value="Example Data button" style="shape=process;whiteSpace=wrap;html=1;backgroundOutline=1;fontSize=20;fillColor=#d5e8d4;strokeColor=#82b366;fontColor=#000000;rounded=1;fontStyle=0;labelBorderColor=default;" vertex="1" parent="1">
                    <mxGeometry x="305" y="400" width="150" height="60" as="geometry"/>
                </mxCell>
                <mxCell id="18" value="" style="edgeStyle=none;html=1;" edge="1" parent="1" source="15" target="17">
                    <mxGeometry relative="1" as="geometry"/>
                </mxCell>
                <mxCell id="15" value="Check the column names and data types" style="whiteSpace=wrap;html=1;fontSize=20;fillColor=#d5e8d4;strokeColor=#82b366;fontColor=#000000;rounded=1;fontStyle=0;labelBorderColor=none;" vertex="1" parent="1">
                    <mxGeometry x="275" y="511.25" width="210" height="77.5" as="geometry"/>
                </mxCell>
                <mxCell id="41" value="" style="edgeStyle=none;html=1;" edge="1" parent="1" source="17" target="39">
                    <mxGeometry relative="1" as="geometry"/>
                </mxCell>
                <mxCell id="17" value="Asking for the Features and targets" style="whiteSpace=wrap;html=1;fontSize=20;fillColor=#d5e8d4;strokeColor=#82b366;fontColor=#000000;rounded=1;fontStyle=0;labelBorderColor=none;" vertex="1" parent="1">
                    <mxGeometry x="280" y="640" width="200" height="83.75" as="geometry"/>
                </mxCell>
                <mxCell id="28" value="" style="edgeStyle=none;html=1;" edge="1" parent="1" source="19" target="27">
                    <mxGeometry relative="1" as="geometry"/>
                </mxCell>
                <mxCell id="30" value="" style="edgeStyle=none;html=1;" edge="1" parent="1" source="19" target="29">
                    <mxGeometry relative="1" as="geometry"/>
                </mxCell>
                <mxCell id="36" value="" style="edgeStyle=none;html=1;" edge="1" parent="1" source="19" target="35">
                    <mxGeometry relative="1" as="geometry"/>
                </mxCell>
                <mxCell id="19" value="Preprocessing and null values imputation" style="shape=parallelogram;perimeter=parallelogramPerimeter;whiteSpace=wrap;html=1;fixedSize=1;fontSize=20;fillColor=#d5e8d4;strokeColor=#82b366;fontColor=#000000;rounded=1;fontStyle=0;labelBorderColor=none;" vertex="1" parent="1">
                    <mxGeometry x="260" y="990" width="240" height="74.38" as="geometry"/>
                </mxCell>
                <mxCell id="32" value="" style="edgeStyle=none;html=1;" edge="1" parent="1" source="27" target="31">
                    <mxGeometry relative="1" as="geometry"/>
                </mxCell>
                <mxCell id="27" value="&lt;span style=&quot;color: rgb(0, 0, 0); text-align: left;&quot;&gt;Feature Encoding&lt;/span&gt;" style="shape=process;whiteSpace=wrap;html=1;backgroundOutline=1;fontSize=20;fillColor=#d5e8d4;strokeColor=#82b366;fontColor=#000000;rounded=1;fontStyle=0;labelBorderColor=none;" vertex="1" parent="1">
                    <mxGeometry x="640" y="997.19" width="120" height="60" as="geometry"/>
                </mxCell>
                <mxCell id="29" value="Feature Selection" style="shape=process;whiteSpace=wrap;html=1;backgroundOutline=1;fontSize=20;fillColor=#d5e8d4;strokeColor=#82b366;fontColor=#000000;rounded=1;fontStyle=0;labelBorderColor=none;" vertex="1" parent="1">
                    <mxGeometry x="-80" y="997.19" width="120" height="60" as="geometry"/>
                </mxCell>
                <mxCell id="31" value="Iverse Transform" style="shape=process;whiteSpace=wrap;html=1;backgroundOutline=1;fontSize=20;fillColor=#d5e8d4;strokeColor=#82b366;fontColor=#000000;rounded=1;fontStyle=0;labelBorderColor=none;" vertex="1" parent="1">
                    <mxGeometry x="640" y="1137.19" width="120" height="60" as="geometry"/>
                </mxCell>
                <mxCell id="38" value="" style="edgeStyle=none;html=1;" edge="1" parent="1" source="35" target="37">
                    <mxGeometry relative="1" as="geometry"/>
                </mxCell>
                <mxCell id="35" value="Select the Model from all regressor or classifier model" style="shape=hexagon;perimeter=hexagonPerimeter2;whiteSpace=wrap;html=1;fixedSize=1;fontSize=20;fillColor=#d5e8d4;strokeColor=#82b366;fontColor=#000000;rounded=1;fontStyle=0;labelBorderColor=none;" vertex="1" parent="1">
                    <mxGeometry x="285" y="1137.1899999999998" width="190" height="108.43" as="geometry"/>
                </mxCell>
                <mxCell id="44" value="" style="edgeStyle=none;html=1;" edge="1" parent="1" source="37" target="43">
                    <mxGeometry relative="1" as="geometry"/>
                </mxCell>
                <mxCell id="37" value="Add the evaluation metrics based on problem" style="whiteSpace=wrap;html=1;fontSize=20;fillColor=#d5e8d4;strokeColor=#82b366;fontColor=#000000;rounded=1;fontStyle=0;labelBorderColor=none;" vertex="1" parent="1">
                    <mxGeometry x="264.68" y="1350" width="230.63" height="88.43" as="geometry"/>
                </mxCell>
                <mxCell id="42" value="" style="edgeStyle=none;html=1;" edge="1" parent="1" source="39" target="19">
                    <mxGeometry relative="1" as="geometry"/>
                </mxCell>
                <mxCell id="39" value="Asking for the features and targets&amp;nbsp;&lt;span style=&quot;background-color: transparent;&quot;&gt;We have to find, the problem is Regression or Classification&lt;/span&gt;" style="whiteSpace=wrap;html=1;fontSize=20;fillColor=#d5e8d4;strokeColor=#82b366;fontColor=#000000;rounded=1;fontStyle=0;labelBorderColor=none;" vertex="1" parent="1">
                    <mxGeometry x="248.75" y="780" width="262.5" height="158.43" as="geometry"/>
                </mxCell>
                <mxCell id="46" value="" style="edgeStyle=none;html=1;" edge="1" parent="1" source="43" target="45">
                    <mxGeometry relative="1" as="geometry"/>
                </mxCell>
                <mxCell id="43" value="Print the evaluation metrics and select the best possible multiple hyperparameters" style="whiteSpace=wrap;html=1;fontSize=20;fillColor=#d5e8d4;strokeColor=#82b366;fontColor=#000000;rounded=1;fontStyle=0;labelBorderColor=none;" vertex="1" parent="1">
                    <mxGeometry x="251.24" y="1550" width="260.01" height="87.36" as="geometry"/>
                </mxCell>
                <mxCell id="45" value="Ask the user for unput data based on sliders and predict the output of the target variable with accuracy with respect to metrics" style="whiteSpace=wrap;html=1;fontSize=20;fillColor=#d5e8d4;strokeColor=#82b366;fontColor=#000000;rounded=1;fontStyle=0;labelBorderColor=none;" vertex="1" parent="1">
                    <mxGeometry x="176.25" y="1770" width="410" height="100" as="geometry"/>
                </mxCell>
            </root>
        </mxGraphModel>
    </diagram>
</mxfile>